<?xml version="1.0" standalone="no"?>
<!DOCTYPE svg PUBLIC "-//W3C//DTD SVG 1.1//EN" "http://www.w3.org/Graphics/SVG/1.1/DTD/svg11.dtd" >
<svg xmlns="http://www.w3.org/2000/svg">
<metadata></metadata>
<defs>
<font id="morningtypebold" horiz-adv-x="305" >
<font-face units-per-em="2048" ascent="1638" descent="-410" />
<missing-glyph horiz-adv-x="313" />
<glyph horiz-adv-x="0" />
<glyph unicode="&#xd;" horiz-adv-x="313" />
<glyph horiz-adv-x="0" />
<glyph horiz-adv-x="0" />
<glyph unicode=" "  horiz-adv-x="313" />
<glyph unicode="&#x09;" horiz-adv-x="313" />
<glyph unicode="&#xa0;" horiz-adv-x="313" />
<glyph unicode="!" d="M57 0v186h191v-186h-191zM57 262v928h191v-928h-191z" />
<glyph unicode="&#x22;" horiz-adv-x="569" d="M57 772v576h189v-576h-189zM324 772v576h188v-576h-188z" />
<glyph unicode="#" horiz-adv-x="1155" d="M18 252v188h269v236h-209v186h231v215h176v-215h211v215h178v-215h242v-186h-264v-236h207v-188h-230v-252h-190l12 252h-211v-252h-176v252h-246zM463 440h188v236h-188v-236z" />
<glyph unicode="$" horiz-adv-x="706" d="M18 862q0 111 66 187.5t170 103.5v195h188v-195q70 -16 128.5 -58t99.5 -102l-142 -121q-18 23 -39.5 42.5t-46.5 35.5v-243q35 -18 76 -41t77 -52.5t59.5 -66.5t23.5 -82q0 -111 -66.5 -179.5t-169.5 -90.5v-195h-188v197q-66 16 -125 54t-96 97l139 121 q18 -18 38.5 -35.5t43.5 -32.5v209q-37 18 -78 42t-77 54.5t-58.5 69.5t-22.5 86zM213 877q0 -20 13.5 -36t27.5 -28v135q-16 -12 -28.5 -30t-12.5 -41zM442 397q14 10 26.5 24t12.5 32t-13 32.5t-26 24.5v-113z" />
<glyph unicode="%" horiz-adv-x="1507" d="M29 899q0 74 17 145.5t55 127t97.5 89t143.5 33.5t142.5 -33.5t95 -90t54 -127t17.5 -144.5t-17.5 -144.5t-54 -126t-95 -89t-142.5 -33.5t-143.5 33.5t-97.5 89t-55 126t-17 144.5zM219 899q0 -31 4 -66.5t17.5 -66.5t37 -51.5t64.5 -20.5q39 0 62.5 21.5t36 52.5 t16.5 66.5t4 64.5q0 27 -5 62.5t-18.5 67.5t-36 54.5t-59.5 22.5q-41 0 -64.5 -21.5t-37 -52.5t-17.5 -66.5t-4 -66.5zM369 0l579 1348h191l-580 -1348h-190zM860 449q0 74 16.5 145.5t53.5 126.5t95 89t144 34q84 0 142.5 -34t95.5 -90t54.5 -127t17.5 -144 q0 -74 -17.5 -145t-54.5 -126t-95.5 -90t-142.5 -35t-143 34t-96 90t-53.5 127t-16.5 145zM1049 449q0 -31 4 -67t17 -66.5t36.5 -51t62.5 -20.5t62.5 20.5t37 51t17.5 66.5t4 67q0 29 -5 64.5t-18.5 66t-37 52t-60.5 21.5q-39 0 -62.5 -20.5t-36.5 -51t-17 -66t-4 -66.5z " />
<glyph unicode="&#x26;" horiz-adv-x="1302" d="M39 397q0 86 38 162t111 121q-74 41 -108.5 115.5t-34.5 156.5q0 90 34 164t92 125t135 79t165 28t170 -30t147 -89l-131 -146q-41 33 -87 54.5t-99 21.5q-39 0 -81 -12t-78 -37t-59.5 -59.5t-23.5 -79.5q0 -61 31 -100.5t77 -61t101.5 -29.5t102.5 -8h172v191h188v-191 h283v-192h-283q0 -53 2 -121t20.5 -127.5t58.5 -101.5t116 -42q33 0 62.5 13.5t53.5 31.5l70 -186q-43 -23 -90 -35t-96 -12q-88 0 -163 35t-128 106q-63 -74 -151.5 -108.5t-184.5 -34.5q-88 0 -166 27.5t-137 80t-94 126t-35 165.5zM227 393q0 -45 22.5 -83t57.5 -64.5 t79 -42t85 -15.5q39 0 83 15.5t80 43t59.5 65.5t23.5 83q0 47 -2 92t-2 93h-191q-49 0 -106.5 -7.5t-100.5 -35.5v2q-35 -23 -61.5 -62t-26.5 -84z" />
<glyph unicode="'" horiz-adv-x="303" d="M57 772v576h189v-576h-189z" />
<glyph unicode="(" horiz-adv-x="575" d="M39 674q0 125 28.5 262t88 259t153.5 216t228 135v-192q-92 -39 -152.5 -117t-95.5 -173t-48.5 -198.5t-13.5 -191.5q0 -90 13.5 -192.5t48.5 -198t95 -173t153 -116.5v-191q-133 41 -227.5 135.5t-154 215t-88 257t-28.5 263.5z" />
<glyph unicode=")" horiz-adv-x="575" d="M39 -6q92 39 152.5 116.5t95.5 173t48 198t13 192.5q0 88 -13 191.5t-48 198.5t-95.5 173t-152.5 117v192q131 -41 226 -135t154.5 -216t88.5 -259t29 -262q0 -127 -29 -263.5t-88.5 -257t-154.5 -215t-226 -135.5v191z" />
<glyph unicode="*" horiz-adv-x="987" d="M18 766l277 160l-277 159l95 166l278 -161v317h189v-320l282 164l96 -164l-280 -161l280 -162l-96 -166l-282 162v-316h-189v316l-278 -160z" />
<glyph unicode="+" horiz-adv-x="884" d="M39 483v189h309v387h189v-387h309v-189h-309v-387h-189v387h-309z" />
<glyph unicode="," d="M57 0v182h191q2 -27 3 -52.5t1 -51.5q0 -66 -14.5 -130.5t-49.5 -121.5h-116q23 23 40 54.5t17 66.5q0 29 -24.5 39t-47.5 14z" />
<glyph unicode="-" horiz-adv-x="696" d="M39 481v189h618v-189h-618z" />
<glyph unicode="." d="M57 0v186h191v-186h-191z" />
<glyph unicode="/" horiz-adv-x="618" d="M18 0l388 1348h194l-389 -1348h-193z" />
<glyph unicode="0" horiz-adv-x="1015" d="M18 674q0 113 24 232.5t80 218t148 162t228 63.5q135 0 227 -63.5t148.5 -162t80 -218.5t23.5 -232q0 -113 -23.5 -232.5t-80 -218t-148.5 -162t-227 -63.5t-227.5 63.5t-148.5 162t-80 218t-24 232.5zM209 674q0 -72 9 -157t40 -157.5t88 -122t152 -49.5 q94 0 151.5 49.5t88 122t39.5 157.5t9 157q0 70 -11 154.5t-43 158.5t-88 124t-146 50q-94 0 -151.5 -49t-88.5 -123t-40 -158.5t-9 -156.5z" />
<glyph unicode="1" horiz-adv-x="471" d="M2 1108l201 240h229v-1348h-188v1098l-101 -117z" />
<glyph unicode="2" horiz-adv-x="892" d="M18 1143q31 49 78 88t101.5 64.5t114 40t116.5 14.5q82 0 159 -26t137 -75t97 -118.5t37 -157.5q0 -100 -37 -177t-96 -138.5t-131 -115t-141.5 -107.5t-128 -113.5t-91.5 -133.5h629v-188h-835v168q0 88 47 160.5t118.5 136t153.5 122t153.5 120t119 129t47.5 151.5 q0 43 -22.5 75t-57.5 54.5t-76 33.5t-78 11q-80 0 -150.5 -39t-119.5 -100z" />
<glyph unicode="3" horiz-adv-x="921" d="M18 406h187q4 -47 25.5 -87t55 -69t77 -45.5t90.5 -16.5q39 0 83 13.5t78.5 39t58 61.5t23.5 81q0 74 -40 114t-98 58t-125.5 21.5t-121.5 3.5v192q51 0 118 4t126 22.5t99 58.5t40 114q0 45 -23.5 79.5t-59.5 59.5t-77.5 37t-80.5 12q-49 0 -91.5 -18.5t-75 -49 t-53 -71.5t-26.5 -88h-184q0 92 32.5 169t91 132t136 85t170.5 30q88 0 164.5 -28t135 -79t92.5 -125t34 -164q0 -80 -36 -155.5t-108 -116.5q74 -45 112 -121t38 -162q0 -92 -35 -165.5t-93.5 -126t-137 -80t-166.5 -27.5q-90 0 -169 29.5t-137.5 83t-92.5 128t-36 167.5z " />
<glyph unicode="4" horiz-adv-x="942" d="M18 385v188l539 775h188v-775h168v-188h-168v-385h-188v385h-539zM242 573h315v453z" />
<glyph unicode="5" horiz-adv-x="899" d="M23 403h192q16 -90 72.5 -152.5t154.5 -62.5q55 0 98.5 20.5t74 54.5t46 80t15.5 99q0 51 -15.5 99.5t-46 86.5t-73.5 60.5t-99 22.5q-66 0 -124 -31t-93 -86h-186v754h747v-187h-561v-332q47 33 102.5 52.5t114.5 19.5q96 0 174 -35t132.5 -96t83 -143t28.5 -174 t-28.5 -175t-83 -144.5t-132 -98.5t-174.5 -37q-88 0 -158.5 32.5t-125 89t-88 130.5t-47.5 153z" />
<glyph unicode="6" horiz-adv-x="960" d="M39 674q0 115 26.5 234.5t86 218t154.5 161t231 62.5q100 0 185 -43t148 -119l-129 -141q-37 49 -89 81.5t-115 32.5q-80 0 -134.5 -33.5t-90.5 -87t-55 -121t-26 -135.5q59 55 133 86t154 31q94 0 169 -38t127 -100.5t80 -144t28 -169.5q0 -96 -32 -178.5t-88.5 -142.5 t-136.5 -95t-178 -35q-137 0 -224 64.5t-137 165t-68.5 219t-18.5 227.5zM266 449q0 -49 14.5 -96.5t42 -83.5t69.5 -58.5t95 -22.5q123 0 184.5 72t61.5 189q0 47 -14 94t-41 84t-68 60.5t-92 23.5q-55 0 -101 -20.5t-80 -56.5t-52.5 -84t-18.5 -101z" />
<glyph unicode="7" horiz-adv-x="872" d="M18 1161v187h834v-187l-440 -1161h-217l438 1161h-615z" />
<glyph unicode="8" horiz-adv-x="946" d="M39 356q0 98 51 188.5t139 137.5q-70 51 -108.5 137t-38.5 172q0 88 30.5 154.5t84 112t126 68t156.5 22.5q82 0 155 -22.5t127 -68t85 -112t31 -154.5q0 -43 -9.5 -88t-28 -86t-46 -75.5t-66.5 -59.5q88 -47 139.5 -137t51.5 -189q0 -94 -37 -161.5t-98.5 -110.5 t-140.5 -63.5t-163 -20.5t-163.5 19.5t-141 62.5t-98.5 110.5t-37 163.5zM223 389q0 -51 23.5 -89t60.5 -62.5t83 -37t89 -12.5t88 12.5t82 38t60.5 63.5t23.5 87q0 51 -23.5 87t-60.5 58.5t-82 34t-88 11.5t-89 -11.5t-83 -34t-60.5 -58.5t-23.5 -87zM266 973 q0 -92 62.5 -146.5t150.5 -54.5t149.5 54.5t61.5 146.5q0 45 -17.5 79.5t-46 59.5t-66.5 37t-81 12t-81 -12t-67.5 -37t-47 -59.5t-17.5 -79.5z" />
<glyph unicode="9" horiz-adv-x="960" d="M39 899q0 94 31.5 177t88 143.5t136.5 95.5t178 35q137 0 225 -64.5t137.5 -164t68 -219.5t18.5 -228q0 -115 -27 -235t-86 -218t-154.5 -160.5t-230.5 -62.5q-102 0 -186 43t-148 121l129 139q39 -47 90 -80t115 -33q80 0 135 33t90 87t54.5 122t25.5 135 q-59 -55 -133 -87t-154 -32q-94 0 -168.5 38t-127 100.5t-80 144.5t-27.5 170zM227 899q0 -47 14.5 -94t41 -84t66.5 -59.5t93 -22.5q55 0 101.5 20.5t80 55.5t52 83t18.5 101q0 49 -14 96t-42 84t-69 59.5t-94 22.5q-123 0 -185.5 -72.5t-62.5 -189.5z" />
<glyph unicode=":" d="M57 80v186h191v-186h-191zM57 602v184h191v-184h-191z" />
<glyph unicode=";" d="M57 84v182h191q2 -27 3 -52.5t1 -51.5q0 -66 -14.5 -130.5t-49.5 -121.5h-116q23 23 40 54.5t17 66.5q0 29 -24.5 39t-47.5 14zM57 602v184h191v-184h-191z" />
<glyph unicode="&#x3c;" horiz-adv-x="729" d="M16 377v209l674 397v-207l-497 -295l497 -295v-206z" />
<glyph unicode="=" horiz-adv-x="788" d="M39 352v189h711v-189h-711zM39 618v185h711v-185h-711z" />
<glyph unicode="&#x3e;" horiz-adv-x="739" d="M37 -20v206l498 295l-498 297v207l674 -399v-209z" />
<glyph unicode="?" horiz-adv-x="860" d="M2 989q68 98 179.5 152.5t228.5 54.5q82 0 159.5 -25.5t138 -74.5t97.5 -119t37 -158q0 -80 -28 -141.5t-74 -107.5t-107.5 -80.5t-126.5 -65.5v-197h-187v318q45 20 102.5 44.5t108 59.5t85 80t34.5 105q0 43 -23.5 74.5t-58.5 54t-75.5 34t-77.5 11.5q-80 0 -149.5 -40 t-121.5 -100zM319 0v186h187v-186h-187z" />
<glyph unicode="@" horiz-adv-x="1486" d="M18 471q0 150 55.5 280t153 226t227.5 151.5t279 55.5q154 0 283 -55.5t224 -151.5t148.5 -226t53.5 -282q0 -68 -11.5 -150.5t-42 -155.5t-87 -121t-146.5 -48q-72 0 -132 34.5t-89 102.5q-45 -29 -96.5 -42t-104.5 -13q-84 0 -151.5 30.5t-115.5 85t-73.5 126 t-25.5 151.5t25.5 151.5t73.5 126t115.5 86t151.5 31.5q41 0 80 -8t74 -25v19h190q0 -14 -4 -93t-4 -179q0 -70 3 -139.5t12.5 -126t25.5 -92.5t43 -36q33 0 53.5 36t31.5 84t15 96.5t4 70.5q0 106 -41.5 201.5t-114.5 167t-168 113.5t-200 42q-113 0 -208 -40 t-165.5 -110.5t-110.5 -165.5t-40 -208q0 -111 41 -206t111.5 -165.5t166 -110.5t205.5 -40q57 0 113.5 11t109.5 34l109 -158q-78 -37 -162 -57.5t-170 -20.5q-150 0 -279.5 55.5t-227 151.5t-153 226.5t-55.5 279.5zM557 469q0 -86 40 -145.5t136 -59.5q51 0 92 21.5 t64 68.5q-2 29 -2 55.5v55.5v110q-23 47 -62 73t-92 26q-96 0 -136 -59.5t-40 -145.5z" />
<glyph unicode="A" horiz-adv-x="1134" d="M2 0l461 1348h199l462 -1348h-200l-133 385h-459l-131 -385h-199zM397 573h330l-166 484z" />
<glyph unicode="B" horiz-adv-x="856" d="M39 0v1348h348q86 0 156.5 -26t121 -75t79 -117.5t28.5 -154.5q0 -82 -31.5 -166t-105.5 -129q47 -18 82 -51t57.5 -75t33.5 -90t11 -95q0 -84 -27.5 -153t-76.5 -117t-119 -73.5t-154 -25.5h-403zM225 188h217q86 0 141.5 56.5t55.5 142.5q0 92 -60.5 142.5t-146.5 50.5 h-207v-392zM225 772h162q86 0 140.5 55.5t54.5 141.5q0 92 -59.5 142t-147.5 50h-150v-389z" />
<glyph unicode="C" horiz-adv-x="1091" d="M18 680q0 135 46.5 256t129 213t199.5 145.5t256 53.5q111 0 214.5 -40t189.5 -110l-119 -147q-59 49 -133 78.5t-152 29.5q-104 0 -185 -38t-137.5 -104.5t-86 -153.5t-29.5 -185q0 -100 28.5 -189.5t84 -156t137.5 -105.5t188 -39q78 0 150.5 29t132.5 80l121 -147 q-86 -70 -189.5 -111t-214.5 -41q-143 0 -260 55.5t-198.5 148.5t-127 217t-45.5 261z" />
<glyph unicode="D" horiz-adv-x="1026" d="M39 0v1348h348q141 0 254 -55.5t191.5 -148.5t121.5 -215t43 -255t-43 -255t-121.5 -215t-191.5 -148.5t-254 -55.5h-348zM227 188h160q104 0 183 40t132.5 106.5t80 155t26.5 184.5q0 92 -28.5 179t-83 154.5t-132.5 108.5t-178 43l-160 2v-973z" />
<glyph unicode="E" horiz-adv-x="845" d="M39 0v1348h768v-187h-582v-393h582v-190h-582v-390h582v-188h-768z" />
<glyph unicode="F" horiz-adv-x="845" d="M39 0v1348h768v-187h-582v-393h582v-190h-582v-578h-186z" />
<glyph unicode="G" horiz-adv-x="1089" d="M18 680q0 135 46.5 256t129 213t199.5 145.5t256 53.5q111 0 213.5 -40t188.5 -110l-117 -147q-59 49 -133 78.5t-152 29.5q-104 0 -185 -38t-137.5 -104.5t-86 -153.5t-29.5 -185q0 -100 28.5 -189.5t84 -156t137.5 -105.5t188 -39q117 0 213 60v330h-368v190h557v-618 q-86 -70 -188.5 -111t-213.5 -41q-143 0 -260 55.5t-198.5 148.5t-127 217t-45.5 261z" />
<glyph unicode="H" horiz-adv-x="972" d="M39 0v1348h186v-580h520v580h189v-1348h-189v578h-520v-578h-186z" />
<glyph unicode="I" horiz-adv-x="636" d="M18 0v186h205v975h-205v187h600v-187h-208v-975h208v-186h-600z" />
<glyph unicode="J" horiz-adv-x="847" d="M2 164l131 135q41 -49 95.5 -80t119.5 -31q63 0 113.5 25t85.5 65.5t54.5 95t19.5 113.5v861h188v-861q0 -96 -35 -185t-96.5 -156.5t-145 -107.5t-184.5 -40q-102 0 -191 46t-155 120z" />
<glyph unicode="K" horiz-adv-x="1052" d="M39 0v1348h186v-562l469 562h252l-504 -594l572 -754h-238l-459 606l-92 -108v-498h-186z" />
<glyph unicode="L" horiz-adv-x="845" d="M39 0v1348h186v-1160h582v-188h-768z" />
<glyph unicode="M" horiz-adv-x="1398" d="M18 0l109 1348h199l362 -1059l363 1059h200l109 -1348h-186l-76 905l-310 -905h-198l-309 899l-74 -899h-189z" />
<glyph unicode="N" horiz-adv-x="1034" d="M39 0v1348h215l551 -1002v1002h190v-1348h-213l-557 1010v-1010h-186z" />
<glyph unicode="O" horiz-adv-x="1353" d="M18 674q0 135 49.5 258t136.5 215t204.5 147.5t257.5 55.5q137 0 255.5 -55.5t207 -147.5t137.5 -215t49 -258t-49 -258t-137.5 -215t-207 -147.5t-255.5 -55.5q-139 0 -257 55.5t-205 147.5t-136.5 215t-49.5 258zM209 674q0 -98 32.5 -186.5t93 -155t144.5 -105.5 t187 -39q100 0 185 39t145.5 105.5t94 154.5t33.5 187q0 94 -34.5 182t-96 155.5t-145.5 108.5t-182 41q-102 0 -186.5 -39t-145 -106.5t-93 -155.5t-32.5 -186z" />
<glyph unicode="P" horiz-adv-x="899" d="M39 0v1348h276q104 0 203.5 -27t177.5 -81t125 -139t47 -202q0 -141 -57 -229t-149.5 -137.5t-207 -66.5t-229.5 -17v-449h-186zM225 639h90q61 0 126 13.5t118 44t87 79.5t34 123t-34 124t-87 81t-117.5 44t-126.5 13h-90v-522z" />
<glyph unicode="Q" horiz-adv-x="1409" d="M18 674q0 135 49.5 258t136.5 215t204.5 147.5t257.5 55.5q137 0 255.5 -55.5t207 -147.5t137.5 -215t49 -258q0 -113 -35 -219.5t-102 -196.5l213 -258h-242l-105 125q-82 -59 -179 -93t-199 -34q-139 0 -257 55.5t-205 147.5t-136.5 215t-49.5 258zM209 674 q0 -98 32.5 -186.5t93 -155t144.5 -105.5t187 -39q70 0 136 20.5t124 61.5l-379 463h237l269 -325q37 59 54 127.5t17 138.5q0 94 -34.5 182t-96 155.5t-145.5 108.5t-182 41q-102 0 -186.5 -39t-145 -106.5t-93 -155.5t-32.5 -186z" />
<glyph unicode="R" horiz-adv-x="1021" d="M39 0v1348h297q104 0 203.5 -27t177.5 -81t125 -139t47 -202q0 -141 -69.5 -243.5t-198.5 -155.5l380 -500h-237l-342 453q-49 -6 -98 -7q-25 0 -49.5 1.5t-49.5 1.5v-449h-186zM225 639h111q61 0 125.5 13.5t118 44t87 79.5t33.5 123t-33.5 124t-87 81t-118 44 t-125.5 13h-111v-522z" />
<glyph unicode="S" horiz-adv-x="894" d="M18 975q0 88 37 157.5t97.5 118.5t138.5 75t160 26q57 0 116.5 -13.5t112.5 -40t99 -65.5t79 -88l-141 -121q-51 59 -121 99t-150 40q-37 0 -77.5 -11t-75.5 -32.5t-57.5 -54.5t-22.5 -76q0 -68 48 -115t121 -85.5t158 -76.5t157.5 -86t120.5 -114t48 -160 q0 -90 -33.5 -156.5t-91 -110.5t-133.5 -65.5t-157 -21.5q-55 0 -116 14.5t-117 40t-105.5 62.5t-79.5 84l141 120q53 -59 126 -95t155 -36q35 0 72.5 7.5t69.5 26t52.5 47t20.5 71.5q0 57 -48.5 99t-121 78t-156.5 74t-156.5 89t-121 121.5t-48.5 173.5z" />
<glyph unicode="T" horiz-adv-x="1062" d="M18 1161v187h1024v-187h-419v-1161h-187v1161h-418z" />
<glyph unicode="U" horiz-adv-x="1015" d="M18 637v711h191v-711q0 -74 9 -154t40 -145.5t88 -107.5t152 -42q94 0 151.5 42t88 107.5t39.5 145.5t9 154v711h191v-711q0 -117 -23.5 -231.5t-79 -204.5t-147.5 -146.5t-229 -56.5t-229.5 56.5t-147.5 146.5t-79 204.5t-24 231.5z" />
<glyph unicode="V" horiz-adv-x="1142" d="M2 1348h199l362 -1057l363 1057h198l-460 -1348h-201z" />
<glyph unicode="W" horiz-adv-x="1738" d="M2 1348h191l284 -1012l289 1012h190l287 -1008l285 1008h192l-381 -1348h-194l-285 1010l-285 -1010h-192z" />
<glyph unicode="X" horiz-adv-x="1150" d="M2 0l453 672l-453 676h225l340 -508l342 508h224l-453 -674l453 -674h-226l-340 506l-340 -506h-225z" />
<glyph unicode="Y" horiz-adv-x="1087" d="M2 1348h203l327 -678l332 678h203l-438 -902v-446h-189v446z" />
<glyph unicode="Z" horiz-adv-x="966" d="M18 0v174l684 987h-684v187h920v-172l-684 -988h684v-188h-920z" />
<glyph unicode="[" horiz-adv-x="460" d="M39 -211v1772h383v-189h-197v-1397h197v-186h-383z" />
<glyph unicode="\" horiz-adv-x="616" d="M18 1348h195l385 -1348h-192z" />
<glyph unicode="]" horiz-adv-x="460" d="M39 -25h197v1397h-197v189h383v-1772h-383v186z" />
<glyph unicode="^" horiz-adv-x="970" d="M18 676l359 672h205l360 -672h-207l-256 479l-254 -479h-207z" />
<glyph unicode="_" horiz-adv-x="788" d="M39 0v186h711v-186h-711z" />
<glyph unicode="`" horiz-adv-x="454" d="M18 1370l142 103l274 -388l-139 -104z" />
<glyph unicode="a" horiz-adv-x="983" d="M18 481q0 94 34 182.5t95.5 155t144.5 106.5t181 40q162 0 285 -105v103h186v-963h-186v102q-123 -104 -285 -104q-98 0 -181 40t-144.5 106.5t-95.5 153.5t-34 183zM207 481q0 -59 18.5 -112.5t52 -93t84 -64.5t111.5 -25t111.5 23.5t85.5 64.5t53 94.5t18 112.5 q0 55 -19.5 108.5t-55 95.5t-85 66.5t-108.5 24.5q-61 0 -110.5 -24.5t-84 -65.5t-53 -94.5t-18.5 -110.5z" />
<glyph unicode="b" horiz-adv-x="958" d="M18 0v1348h187v-476q57 45 126.5 69t141.5 24q98 0 182 -40t145.5 -106.5t95.5 -153.5t34 -184q0 -96 -34 -183t-95.5 -153.5t-145.5 -106.5t-182 -40q-72 0 -141.5 22.5t-126.5 69.5v-90h-187zM207 481q0 -59 18.5 -112.5t52 -94.5t84 -64.5t111.5 -23.5t111.5 23.5 t85.5 64.5t53 94.5t18 112.5q0 55 -20.5 108.5t-55 94.5t-85 66.5t-107.5 25.5q-61 0 -110.5 -24.5t-84 -64.5t-53 -94.5t-18.5 -111.5z" />
<glyph unicode="c" horiz-adv-x="837" d="M10 481q0 94 34 182.5t95.5 155t144.5 106.5t181 40q100 0 188 -46.5t156 -117.5l-129 -131q-41 47 -96.5 76.5t-118.5 29.5q-61 0 -110.5 -24.5t-85.5 -64.5t-54 -94t-18 -112q0 -59 18 -112.5t53 -94.5t85 -64.5t112 -23.5q63 0 118.5 30t94.5 79l131 -133 q-66 -74 -155 -119t-189 -45q-98 0 -181 40t-144.5 106.5t-95.5 153.5t-34 183z" />
<glyph unicode="d" horiz-adv-x="968" d="M18 481q0 94 34 182.5t95.5 155t144.5 106.5t181 40q74 0 143.5 -25t126.5 -70v478h187v-1348h-187v90q-121 -92 -270 -92q-98 0 -181 40t-144.5 106.5t-95.5 153.5t-34 183zM207 481q0 -59 18.5 -112.5t52 -93t84 -64.5t111.5 -25t111.5 23.5t85.5 64.5t53 94.5 t18 112.5q0 55 -20.5 108.5t-55 94.5t-85 66.5t-107.5 25.5q-61 0 -110.5 -24.5t-84 -65.5t-53 -94.5t-18.5 -110.5z" />
<glyph unicode="e" horiz-adv-x="929" d="M20 481q0 92 32 179.5t89.5 155t137 108.5t178.5 41q96 0 176 -42t137 -110t89 -155t32 -177q0 -55 -17 -114h-647q29 -82 94.5 -131.5t153.5 -49.5q63 0 117.5 31t95.5 78l129 -133q-66 -74 -154 -119t-188 -45q-98 0 -182 40t-144.5 106.5t-94.5 153.5t-34 183z M215 553h479q-8 45 -28.5 85t-51 70.5t-71.5 49t-88 18.5q-102 0 -163 -63.5t-77 -159.5z" />
<glyph unicode="f" horiz-adv-x="702" d="M18 580v186h101q0 100 11 203.5t51 187.5t115 137.5t204 53.5q94 0 184 -45l-68 -185q-25 18 -54.5 30.5t-61.5 12.5q-57 0 -94 -28.5t-59.5 -71.5t-32 -94.5t-9.5 -96.5v-104h332v-186h-332v-580h-186v580h-101z" />
<glyph unicode="g" horiz-adv-x="968" d="M18 481q0 94 34 182.5t95.5 155t144.5 106.5t181 40q72 0 140.5 -25t127.5 -68v91h189v-869q0 -96 -34 -183t-95.5 -153.5t-145.5 -106.5t-182 -40t-187 45t-155 117l131 135q39 -47 93.5 -78t117.5 -31q61 0 110.5 23.5t84 63.5t54 92.5t19.5 111.5 q-57 -45 -126.5 -68.5t-141.5 -23.5q-98 0 -181 40t-144.5 106.5t-95.5 153.5t-34 183zM207 481q0 -59 18.5 -112.5t52 -93t84 -64.5t111.5 -25q57 0 107.5 22.5t85 61.5t55 90.5t20.5 108.5t-18 112.5t-53 98.5t-85 69.5t-112 26.5q-61 0 -110.5 -24.5t-84 -65.5t-53 -94.5 t-18.5 -110.5z" />
<glyph unicode="h" horiz-adv-x="894" d="M18 0v1348h189v-457q51 35 110.5 53.5t120.5 18.5q100 0 178 -40t131.5 -105.5t81 -152.5t27.5 -180v-485h-186v485q0 53 -13.5 104.5t-42 92.5t-72.5 66.5t-104 25.5q-57 0 -100 -24.5t-72.5 -63.5t-44 -89t-14.5 -101v-496h-189z" />
<glyph unicode="i" horiz-adv-x="301" d="M57 0v963h187v-963h-187zM57 1022v184h187v-184h-187z" />
<glyph unicode="j" horiz-adv-x="303" d="M-322 -340l68 186q27 -20 56.5 -32.5t62.5 -12.5q55 0 93 28t59.5 71t30.5 94t9 96v873h189v-873q0 -90 -21.5 -176t-67.5 -152.5t-119 -107.5t-173 -41q-98 0 -187 47zM57 1022v184h187v-184h-187z" />
<glyph unicode="k" horiz-adv-x="882" d="M39 0v1348h184v-754l309 369h248l-344 -406l428 -557h-237l-314 414l-90 -109v-305h-184z" />
<glyph unicode="l" horiz-adv-x="301" d="M57 0v1348h187v-1348h-187z" />
<glyph unicode="m" horiz-adv-x="1411" d="M18 0v963h187v-62q86 61 198 62q88 0 164 -41t127 -113q51 72 127 113t166 41q96 0 169 -42t121 -111t71.5 -154t23.5 -171v-485h-188v485q0 43 -11.5 93.5t-35 94.5t-61.5 72.5t-89 28.5q-53 0 -91 -28.5t-61.5 -71.5t-35 -94.5t-11.5 -94.5v-485h-186v485 q0 43 -11 93.5t-35 94.5t-61.5 72.5t-91.5 28.5q-53 0 -90 -28.5t-60.5 -72.5t-34.5 -94.5t-11 -93.5v-485h-189z" />
<glyph unicode="n" horiz-adv-x="894" d="M18 0v963h189v-72q51 35 110.5 53.5t120.5 18.5q100 0 178 -40t131.5 -105.5t81 -152.5t27.5 -180v-485h-186v485q0 53 -13.5 104.5t-42 92.5t-72.5 66.5t-104 25.5q-57 0 -100 -24.5t-72.5 -63.5t-44 -89t-14.5 -101v-496h-189z" />
<glyph unicode="o" horiz-adv-x="958" d="M18 481q0 94 34 182.5t95.5 155t144.5 106.5t181 40t182 -40t145.5 -106.5t95.5 -153.5t34 -184q0 -96 -34 -183t-95.5 -153.5t-145.5 -106.5t-182 -40t-181 40t-144.5 106.5t-95.5 153.5t-34 183zM207 481q0 -59 18.5 -112.5t52 -93t84 -64.5t111.5 -25t111.5 23.5 t85.5 64.5t53 94.5t18 112.5q0 55 -20.5 108.5t-55 94.5t-85 66.5t-107.5 25.5q-61 0 -110.5 -24.5t-84 -65.5t-53 -94.5t-18.5 -110.5z" />
<glyph unicode="p" horiz-adv-x="960" d="M18 -387v1350h187v-91q57 45 126.5 69t141.5 24q98 0 182 -40t145.5 -106.5t95.5 -153.5t34 -184q0 -96 -34 -183t-95.5 -153.5t-145.5 -106.5t-182 -40q-72 0 -141.5 22.5t-126.5 69.5v-477h-187zM207 481q0 -59 18.5 -112.5t52 -94.5t84 -64.5t111.5 -23.5t111.5 23.5 t85.5 64.5t53 94.5t18 112.5q0 55 -20.5 108.5t-55 94.5t-85 66.5t-107.5 25.5q-61 0 -110.5 -24.5t-84 -64.5t-53 -94.5t-18.5 -111.5z" />
<glyph unicode="q" horiz-adv-x="968" d="M18 481q0 96 34 183.5t95.5 154t145.5 106.5t182 40q72 0 140.5 -25t127.5 -68v91h187v-1350h-187v477q-57 -45 -126.5 -68.5t-141.5 -23.5q-98 0 -182 40t-145.5 106.5t-95.5 153.5t-34 183zM207 481q0 -59 18.5 -112.5t53 -94.5t85 -64.5t111.5 -23.5t111.5 23.5 t84.5 64.5t52 94.5t18 112.5q0 57 -18 111.5t-53 94.5t-84 64.5t-111 24.5q-59 0 -108.5 -25.5t-84 -66.5t-55 -94t-20.5 -109z" />
<glyph unicode="r" horiz-adv-x="618" d="M39 0v963h184v-54q43 29 91 41.5t100 12.5q47 0 95 -13.5t91 -34.5l-63 -184q-25 16 -60 29.5t-65 13.5q-55 0 -91 -28.5t-57.5 -71.5t-30 -93.5t-8.5 -95.5v-485h-186z" />
<glyph unicode="s" horiz-adv-x="706" d="M25 666q0 70 26.5 125t71.5 94t104.5 60.5t124.5 21.5q96 0 180 -45t138 -125l-140 -119q-35 41 -81 70.5t-101 29.5q-20 0 -42.5 -6t-42 -18.5t-33 -29.5t-13.5 -42q0 -31 34 -56.5t85 -51t111.5 -53t111.5 -63.5t85 -81t34 -105q0 -68 -27.5 -119t-74 -85.5t-104.5 -52 t-120 -17.5q-92 0 -176 43t-137 119l139 119q37 -41 79 -67t99 -26q16 0 39 4.5t42.5 13.5t32.5 23.5t13 36.5q0 29 -33.5 51.5t-85 46t-110.5 51t-110.5 62.5t-85 81t-33.5 110z" />
<glyph unicode="t" horiz-adv-x="700" d="M18 774v184h234v390h186v-390h234v-184h-234v-774h-186v774h-234z" />
<glyph unicode="u" horiz-adv-x="894" d="M18 477v486h189v-486q0 -53 13 -105.5t42 -93t73 -66.5t103 -26t103.5 26t73 66.5t42 93t13.5 105.5v486h186v-963h-184v74q-102 -74 -234 -74q-100 0 -178 40t-132 105.5t-82 152.5t-28 179z" />
<glyph unicode="v" horiz-adv-x="880" d="M2 963h197l231 -678l236 678h196l-332 -963h-198z" />
<glyph unicode="w" horiz-adv-x="1300" d="M2 963h188l179 -631l178 631h188l178 -631l179 631h188l-272 -963h-189l-178 629l-178 -629h-189z" />
<glyph unicode="x" horiz-adv-x="888" d="M2 0l324 481l-322 482h221l211 -316l211 316h221l-321 -482l323 -481h-221l-213 317l-213 -317h-221z" />
<glyph unicode="y" horiz-adv-x="874" d="M2 963h197l229 -674l234 674h194l-465 -1350h-194l133 389z" />
<glyph unicode="z" horiz-adv-x="706" d="M18 0v172l418 604h-418v187h650v-172l-418 -605h418v-186h-650z" />
<glyph unicode="{" horiz-adv-x="792" d="M18 578v190h191q49 23 64.5 92.5t18.5 158.5t6 186.5t28.5 179t84 135t175.5 53.5q49 0 96 -12.5t90 -34.5l-67 -174q-20 14 -44 22t-51 8q-55 0 -80.5 -38.5t-36 -100t-11.5 -139.5t-5 -157t-19.5 -151.5t-54.5 -121.5q39 -51 54.5 -124t20.5 -152t6 -155.5t10.5 -138 t35 -99.5t80.5 -38q47 0 95 27l67 -166q-41 -25 -89 -36t-97 -11q-115 0 -174.5 52t-84 132t-27.5 177.5t-7 185.5t-19.5 156.5t-66.5 93.5h-189z" />
<glyph unicode="|" d="M57 -387v1929h191v-1929h-191z" />
<glyph unicode="}" horiz-adv-x="784" d="M2 -172l68 166q47 -27 94 -27q55 0 80.5 38t36 100.5t10.5 139.5t4 155.5t19.5 150.5t56.5 123q-39 51 -55.5 122.5t-20.5 150.5t-4 157t-9.5 139.5t-35 100t-80.5 38.5q-53 0 -96 -30l-68 174q43 23 90 35t96 12q115 0 174.5 -53.5t85 -135t28.5 -179t6 -186.5 t18.5 -158.5t64.5 -92.5h191v-190h-189q-51 -25 -66.5 -93.5t-19.5 -156.5t-7 -185.5t-27.5 -177.5t-84 -132t-174.5 -52q-49 0 -97 11t-89 36z" />
<glyph unicode="~" horiz-adv-x="813" d="M18 524q23 29 57 64t72.5 64.5t79.5 50t80 20.5q33 0 62.5 -16.5t54.5 -37t46.5 -37t37.5 -16.5q12 0 29.5 14.5t36 35t35 40t24.5 29.5l162 -108q-23 -35 -54.5 -70t-69.5 -63.5t-80 -47t-85 -18.5q-37 0 -66.5 17.5t-54.5 37t-45.5 37t-38.5 17.5q-14 0 -32.5 -14.5 t-37 -35t-35 -40t-24.5 -31.5z" />
<glyph unicode="&#xa1;" d="M57 0v928h191v-928h-191zM57 1004v186h191v-186h-191z" />
<glyph unicode="&#xa2;" horiz-adv-x="854" d="M18 674q0 80 24 154.5t68 137t106.5 109.5t139.5 70v203h191v-191q82 -14 152.5 -57t125.5 -103l-127 -131q-33 33 -70.5 58.5t-80.5 40.5v-582q45 14 82 41t67 61l127 -135q-53 -61 -123.5 -104t-152.5 -58v-188h-191v201q-78 23 -140 69.5t-106 110t-68 138.5t-24 155z M209 674q0 -82 37 -157t110 -114v541q-74 -39 -110.5 -113.5t-36.5 -156.5z" />
<glyph unicode="&#xa3;" horiz-adv-x="868" d="M18 0v188q86 0 132.5 16.5t67 51.5t23.5 90t3 135v97h-185v190h185q0 100 12 202.5t52 186.5t117 137.5t204 53.5q49 0 96 -12.5t92 -32.5l-69 -189q-27 18 -56.5 31.5t-62.5 13.5q-57 0 -95 -28.5t-60.5 -71.5t-32 -95.5t-9.5 -99.5v-96h258v-190h-258v-99 q0 -74 -5 -147.5t-26 -143.5h439v-188h-822z" />
<glyph unicode="&#xa4;" horiz-adv-x="980" d="M18 674q0 92 32 178t91 156l-106 159l153 105l101 -152q47 20 94 31.5t98 11.5q47 0 95.5 -11t91.5 -32l100 152l154 -105l-105 -157q61 -70 93 -157t32 -179t-32.5 -180t-94.5 -158l107 -154l-156 -104l-100 147q-88 -41 -185 -41q-49 0 -98 10.5t-94 32.5l-101 -149 l-151 104l106 156q-61 70 -93 157t-32 179zM211 674q0 -59 18.5 -113.5t54 -95.5t86 -65.5t111.5 -24.5t111.5 24.5t86.5 66.5t54.5 95t18.5 113q0 55 -20.5 109.5t-56.5 97.5t-85 68.5t-109 25.5q-63 0 -113.5 -24.5t-85 -66.5t-53 -96.5t-18.5 -113.5z" />
<glyph unicode="&#xa5;" horiz-adv-x="886" d="M2 1348h199l233 -697l236 697h198l-256 -738h189v-186h-254l-17 -49v-10h271v-187h-271v-178h-190v178h-285v187h285v10l-18 49h-267v186h203z" />
<glyph unicode="&#xa6;" d="M57 367h191v-754h-191v754zM57 520v828h191v-828h-191z" />
<glyph unicode="&#xa7;" horiz-adv-x="700" d="M18 666q0 59 22.5 116.5t68.5 98.5q-41 33 -66 74.5t-25 95.5q0 70 27 125t72 94t104.5 60.5t124.5 21.5q96 0 180 -45t138 -125l-140 -119q-35 41 -81 70.5t-101 29.5q-20 0 -43 -6t-42 -18.5t-32.5 -29.5t-13.5 -42q0 -31 34 -56.5t85 -51t111.5 -53t111.5 -63.5 t85 -81t34 -105q0 -63 -29 -117.5t-80 -90.5q41 -33 75 -77t34 -100q0 -68 -28 -119t-74 -85.5t-104 -52t-120 -17.5q-92 0 -176 43t-137 119l139 119q37 -41 79 -67t99 -26q16 0 39 4.5t42.5 13.5t32.5 23.5t13 36.5q0 29 -33.5 51.5t-85 46t-111 51t-110.5 62.5t-85 81.5 t-34 109.5zM211 682q0 -20 14.5 -37.5t34 -31t41 -24.5t35.5 -18q18 0 41.5 3.5t46 11.5t38 23.5t15.5 39.5q0 20 -22.5 40t-51 36t-59.5 28.5t-45 18.5q-33 -8 -60.5 -31.5t-27.5 -58.5z" />
<glyph unicode="&#xa8;" horiz-adv-x="516" d="M39 1124v170h174v-170h-174zM309 1124v170h172v-170h-172z" />
<glyph unicode="&#xa9;" horiz-adv-x="1351" d="M18 674q0 135 49.5 258t136.5 215t204.5 147.5t257.5 55.5q137 0 255.5 -55.5t205.5 -147.5t136.5 -215t49.5 -258t-49.5 -258t-136.5 -215t-205.5 -147.5t-255.5 -55.5q-139 0 -257 55.5t-205 147.5t-136.5 215t-49.5 258zM209 674q0 -98 32.5 -186.5t93 -155 t144.5 -105.5t187 -39q100 0 185 39t145.5 105.5t94 154.5t33.5 187q0 94 -34.5 182t-96 155.5t-145.5 108.5t-182 41q-102 0 -186.5 -39t-145 -106.5t-93 -155.5t-32.5 -186zM365 676q0 70 23.5 132t66.5 109.5t103 75t132 27.5q57 0 111.5 -23.5t97.5 -58.5l-59 -174 q-31 27 -70 47t-80 20q-31 0 -55.5 -14t-43 -36.5t-28.5 -50.5t-10 -56q0 -29 10 -57.5t27.5 -51t43 -37t56.5 -14.5q41 0 80 19.5t70 46.5l59 -174q-43 -35 -97.5 -58.5t-111.5 -23.5q-74 0 -134 28.5t-103 76.5t-65.5 111.5t-22.5 135.5z" />
<glyph unicode="&#xaa;" horiz-adv-x="493" d="M10 1012q0 47 17.5 91t47 77.5t71.5 53t92 19.5q39 0 76.5 -14t66.5 -39v53h92v-481h-92v51q-59 -53 -143 -53q-49 0 -91.5 19.5t-72 53.5t-47 78t-17.5 91zM104 1012q0 -57 36 -102.5t98 -45.5q61 0 98 44t37 104q0 55 -38 101t-97 46q-61 0 -97.5 -45t-36.5 -102z" />
<glyph unicode="&#xab;" horiz-adv-x="995" d="M20 481q0 35 16.5 70t45.5 57l489 383v-211q-10 -8 -37.5 -29.5t-64.5 -50t-78 -61.5t-76.5 -63.5t-63.5 -57t-36 -41.5q25 -37 71 -78t98 -79.5t103.5 -73.5t83.5 -62v-209l-495 379q-29 23 -42.5 57.5t-13.5 69.5zM408 481q0 35 16 70t45 57l489 383v-211 q-10 -8 -37.5 -29.5t-64.5 -50t-78 -61.5t-76.5 -63.5t-63.5 -57t-36 -41.5q25 -37 71 -78t98 -79.5t103.5 -73.5t83.5 -62v-209l-495 379q-29 23 -42 57.5t-13 69.5z" />
<glyph unicode="&#xac;" horiz-adv-x="788" d="M39 483v189h711v-383h-189v194h-522z" />
<glyph unicode="&#xad;" horiz-adv-x="696" d="M39 481v189h618v-189h-618z" />
<glyph unicode="&#xae;" horiz-adv-x="1351" d="M18 674q0 135 49.5 258t136.5 215t204.5 147.5t257.5 55.5q137 0 255.5 -55.5t205.5 -147.5t136.5 -215t49.5 -258t-49.5 -258t-136.5 -215t-205.5 -147.5t-255.5 -55.5q-139 0 -257 55.5t-205 147.5t-136.5 215t-49.5 258zM209 674q0 -98 32.5 -186.5t93 -155 t144.5 -105.5t187 -39q100 0 185 39t145.5 105.5t94 154.5t33.5 187q0 94 -34.5 182t-96 155.5t-145.5 108.5t-182 41q-102 0 -186.5 -39t-145 -106.5t-93 -155.5t-32.5 -186zM422 328v696h231q53 0 104.5 -15.5t92.5 -45t66.5 -73.5t25.5 -104q0 -45 -15.5 -86t-49.5 -69 l151 -199l-154 -108l-178 231q-10 -2 -21 -2h-22h-43v-225h-188zM610 741h43q10 0 26.5 2t32 6.5t27 13.5t11.5 23t-11.5 24.5t-27 14.5t-31.5 6.5t-27 2.5h-43v-93z" />
<glyph unicode="&#xaf;" horiz-adv-x="600" d="M18 1124v170h564v-170h-564z" />
<glyph unicode="&#xb0;" horiz-adv-x="481" d="M10 1012q0 47 17.5 91t47 77.5t71.5 53t92 19.5q49 0 91 -19.5t72.5 -53t48 -77.5t17.5 -91t-17.5 -91t-48 -78t-72.5 -53.5t-91 -19.5t-91.5 19.5t-72 53.5t-47 78t-17.5 91zM104 1012q0 -57 36 -102.5t98 -45.5q61 0 98 44t37 104q0 55 -38 101t-97 46q-61 0 -97.5 -45 t-36.5 -102z" />
<glyph unicode="&#xb1;" horiz-adv-x="710" d="M18 98v189h654v-189h-654zM18 606v187h234v274h188v-274h232v-187h-232v-262h-188v262h-234z" />
<glyph unicode="&#xb2;" horiz-adv-x="444" d="M10 1151q35 49 90.5 75.5t114.5 26.5q41 0 80 -13t68.5 -37.5t48 -59.5t18.5 -78q0 -76 -40 -125t-92 -90t-103.5 -81t-75.5 -95h313v-94h-418v84q0 45 23.5 80.5t59.5 67.5t77 60.5t77 59.5t59.5 64.5t23.5 76.5t-40 64.5t-77 21.5q-41 0 -76 -20.5t-59 -48.5z" />
<glyph unicode="&#xb3;" horiz-adv-x="462" d="M10 782h94q4 -47 40 -77.5t83 -30.5q20 0 42 6t40.5 18.5t29.5 30.5t11 41q0 37 -20.5 57.5t-49 29.5t-62.5 10t-60 1v97q27 0 59.5 2t61 12t49 29.5t20.5 56.5q0 45 -41 69.5t-80 24.5q-49 0 -82.5 -33.5t-40.5 -81.5h-92q0 92 61.5 150.5t153.5 58.5q88 0 150.5 -53 t62.5 -145q0 -41 -18.5 -78t-52.5 -57q35 -23 55 -62t20 -80q0 -47 -17 -84t-47 -62.5t-70 -39.5t-83 -14q-90 0 -152.5 56t-64.5 148z" />
<glyph unicode="&#xb4;" horiz-adv-x="536" d="M14 1128l389 349l115 -131l-389 -349z" />
<glyph unicode="&#xb5;" horiz-adv-x="888" d="M18 -387v1350h189v-492q0 -53 15.5 -103.5t45 -90t73.5 -64.5t101 -25t101.5 25t75 64.5t46 90t15.5 103.5v492h186v-963h-186v74q-53 -37 -113.5 -55.5t-124.5 -18.5q-63 0 -123.5 18.5t-111.5 55.5v-461h-189z" />
<glyph unicode="&#xb6;" horiz-adv-x="1193" d="M39 899q0 117 48 202t126 139t177 81t204 27h561v-1348h-190v1161h-80v-1161h-187v449q-115 0 -232.5 15t-212.5 63t-154.5 137.5t-59.5 234.5z" />
<glyph unicode="&#xb7;" d="M57 602v184h191v-184h-191z" />
<glyph unicode="&#xb8;" horiz-adv-x="620" d="M18 -416l127 129q14 -6 35 -10t44.5 -7t45 -4t37.5 -1q10 0 28.5 1t37 4t33 11t14.5 25q0 14 -29 27.5t-65.5 23.5t-72.5 16l-48 8v281h168v-151q37 -10 78 -26.5t74.5 -42.5t55 -60.5t21.5 -79.5q0 -61 -30.5 -101.5t-76.5 -63t-101.5 -31.5t-104.5 -9 q-70 0 -139.5 15.5t-131.5 45.5z" />
<glyph unicode="&#xb9;" horiz-adv-x="235" d="M2 1133l100 120h115v-673h-94v546l-49 -57z" />
<glyph unicode="&#xba;" horiz-adv-x="481" d="M10 1012q0 47 17.5 91t47 77.5t71.5 53t92 19.5q49 0 91 -19.5t72.5 -53t48 -77.5t17.5 -91t-17.5 -91t-48 -78t-72.5 -53.5t-91 -19.5t-91.5 19.5t-72 53.5t-47 78t-17.5 91zM104 1012q0 -57 36 -102.5t98 -45.5q61 0 98 44t37 104q0 55 -38 101t-97 46q-61 0 -97.5 -45 t-36.5 -102z" />
<glyph unicode="&#xbb;" horiz-adv-x="995" d="M18 -25v209q33 27 84.5 62t103.5 73.5t98 79.5t71 78q-12 23 -64.5 68t-112 93t-112.5 89t-68 53v211l490 -383q29 -23 45 -57.5t16 -69.5t-13 -69.5t-42 -57.5zM406 -25v209q33 27 84 62t103 73.5t98 79.5t71 78q-12 23 -64.5 68t-112 93t-112.5 89t-67 53v211l489 -383 q29 -23 45 -57.5t16 -69.5t-13 -69.5t-42 -57.5z" />
<glyph unicode="&#xbc;" horiz-adv-x="862" d="M39 1141l94 112h78v-673h-78v555l-37 -45zM78 193l618 962h78l-618 -954zM377 201v75l274 398h76v-398h96v-75h-96v-201h-76v201h-274zM467 276h184v267z" />
<glyph unicode="&#xbd;" horiz-adv-x="903" d="M39 193l618 962h78l-616 -962h-80zM39 1141l94 112h78v-673h-78v555l-37 -45zM455 0v76q0 43 24.5 80t60 68.5t79 62t79 62.5t60 68t24.5 81q0 25 -12 43t-31.5 30.5t-42 18.5t-43.5 6q-41 0 -78.5 -16.5t-62.5 -51.5l-57 52q29 47 86 70.5t110 23.5q39 0 77 -12.5 t67.5 -36t48 -57t18.5 -76.5q0 -78 -43 -128.5t-98 -92.5t-109.5 -86t-76.5 -109h329v-76h-409z" />
<glyph unicode="&#xbe;" horiz-adv-x="929" d="M18 766h76q4 -51 47 -81t90 -30q51 0 93.5 33t42.5 88q0 37 -21.5 57.5t-52.5 30.5t-64.5 12.5t-60.5 2.5v77q29 0 63.5 3.5t64.5 13.5t50.5 32.5t20.5 63.5q0 25 -13.5 44.5t-33 33.5t-44 21.5t-45.5 7.5q-23 0 -46 -8.5t-42.5 -23t-33 -34.5t-13.5 -45v-6h-76 q0 90 62.5 142t148.5 52t148.5 -52t62.5 -142q0 -45 -22.5 -84t-65.5 -55q43 -18 66.5 -58.5t23.5 -87.5q0 -92 -63.5 -144t-149.5 -52q-84 0 -147.5 50t-65.5 138zM184 193h78l619 962h-80zM444 201h275v-201h76v201h96v75h-96v398h-76l-275 -398v-75zM535 276l184 267 v-267h-184z" />
<glyph unicode="&#xbf;" horiz-adv-x="856" d="M-4 373q0 80 28 141.5t74 107.5t107.5 80.5t126.5 65.5v197h187v-318q-45 -20 -102.5 -44.5t-108 -59.5t-85 -80t-34.5 -105q0 -43 23.5 -74.5t58.5 -54t75.5 -34t77.5 -11.5q80 0 149.5 40t121.5 100l141 -121q-68 -98 -179.5 -152.5t-228.5 -54.5q-82 0 -159.5 25.5 t-138 74.5t-97.5 119t-37 158zM332 1006v186h187v-186h-187z" />
<glyph unicode="&#xc0;" horiz-adv-x="1134" d="M2 0l461 1348h199l462 -1348h-200l-133 385h-459l-131 -385h-199zM319 1814l142 103l274 -388l-139 -104zM397 573h330l-166 484z" />
<glyph unicode="&#xc1;" horiz-adv-x="1134" d="M2 0l461 1348h199l462 -1348h-200l-133 385h-459l-131 -385h-199zM313 1515l389 349l115 -131l-389 -349zM397 573h330l-166 484z" />
<glyph unicode="&#xc2;" horiz-adv-x="1134" d="M2 0l461 1348h199l462 -1348h-200l-133 385h-459l-131 -385h-199zM280 1464l197 398h172l199 -398h-172l-113 226l-111 -226h-172zM397 573h330l-166 484z" />
<glyph unicode="&#xc3;" horiz-adv-x="1134" d="M2 0l461 1348h199l462 -1348h-200l-133 385h-459l-131 -385h-199zM266 1561q16 25 41 54t55.5 56t63.5 44.5t64 17.5q23 0 43 -11.5t38.5 -25t33 -24.5t24.5 -11q29 0 56.5 29.5t41.5 52.5l135 -94q-16 -25 -41.5 -54.5t-55.5 -55.5t-62.5 -43t-65.5 -17q-23 0 -42 11 t-35.5 24.5t-31 24.5t-28.5 11q-29 0 -56.5 -29.5t-43.5 -52.5zM397 573h330l-166 484z" />
<glyph unicode="&#xc4;" horiz-adv-x="1134" d="M2 0l461 1348h199l462 -1348h-200l-133 385h-459l-131 -385h-199zM342 1511v170h174v-170h-174zM397 573h330l-166 484zM612 1511v170h172v-170h-172z" />
<glyph unicode="&#xc5;" horiz-adv-x="1134" d="M2 0l461 1348h199l462 -1348h-200l-133 385h-459l-131 -385h-199zM344 1675q0 45 16.5 86t45.5 73t67.5 51.5t85.5 19.5q45 0 86 -18.5t70 -50.5t46.5 -74t17.5 -87t-17.5 -86t-46.5 -72.5t-69.5 -50t-86.5 -18.5q-47 0 -85.5 18.5t-67.5 50t-45.5 72.5t-16.5 86z M397 573h330l-166 484zM492 1675q0 -33 16.5 -55.5t50.5 -22.5q35 0 52.5 22.5t17.5 55.5q0 31 -17.5 56.5t-52.5 25.5t-51 -24.5t-16 -57.5z" />
<glyph unicode="&#xc6;" horiz-adv-x="1310" d="M2 0l463 1348h807v-187h-473v-393h473v-190h-473v-390h473v-188h-662v387h-276l-133 -387h-199zM399 575h211v611z" />
<glyph unicode="&#xc7;" horiz-adv-x="1091" d="M18 680q0 135 46.5 256t129 213t199.5 145.5t256 53.5q111 0 214.5 -40t189.5 -110l-119 -147q-59 49 -133 78.5t-152 29.5q-104 0 -185 -38t-137.5 -104.5t-86 -153.5t-29.5 -185q0 -100 28.5 -189.5t84 -156t137.5 -105.5t188 -39q78 0 150.5 29t132.5 80l121 -147 q-86 -70 -189.5 -111t-214.5 -41q-143 0 -260 55.5t-198.5 148.5t-127 217t-45.5 261zM362 -416l127 129q14 -6 35 -10t44.5 -7t45 -4t37.5 -1q10 0 28.5 1t37 4t33 11t14.5 25q0 14 -29 27.5t-65.5 23.5t-72.5 16l-48 8v281h168v-151q37 -10 78 -26.5t74.5 -42.5t55 -60.5 t21.5 -79.5q0 -61 -30.5 -101.5t-76.5 -63t-101.5 -31.5t-104.5 -9q-70 0 -139.5 15.5t-131.5 45.5z" />
<glyph unicode="&#xc8;" horiz-adv-x="845" d="M39 0v1348h768v-187h-582v-393h582v-190h-582v-390h582v-188h-768zM235 1757l142 103l274 -388l-139 -104z" />
<glyph unicode="&#xc9;" horiz-adv-x="845" d="M39 0v1348h768v-187h-582v-393h582v-190h-582v-390h582v-188h-768zM192 1515l389 349l115 -131l-389 -349z" />
<glyph unicode="&#xca;" horiz-adv-x="845" d="M39 0v1348h768v-187h-582v-393h582v-190h-582v-390h582v-188h-768zM172 1464l197 398h172l199 -398h-172l-113 226l-111 -226h-172z" />
<glyph unicode="&#xcb;" horiz-adv-x="845" d="M39 0v1348h768v-187h-582v-393h582v-190h-582v-390h582v-188h-768zM219 1511v170h174v-170h-174zM489 1511v170h172v-170h-172z" />
<glyph unicode="&#xcc;" horiz-adv-x="636" d="M18 0v186h205v975h-205v187h600v-187h-208v-975h208v-186h-600zM131 1757l142 103l274 -388l-139 -104z" />
<glyph unicode="&#xcd;" horiz-adv-x="636" d="M18 0v186h205v975h-205v187h600v-187h-208v-975h208v-186h-600zM67 1515l389 349l115 -131l-389 -349z" />
<glyph unicode="&#xce;" horiz-adv-x="636" d="M18 0v186h205v975h-205v187h600v-187h-208v-975h208v-186h-600zM38 1464l197 398h172l199 -398h-172l-113 226l-111 -226h-172z" />
<glyph unicode="&#xcf;" horiz-adv-x="636" d="M18 0v186h205v975h-205v187h600v-187h-208v-975h208v-186h-600zM100 1511v170h174v-170h-174zM370 1511v170h172v-170h-172z" />
<glyph unicode="&#xd0;" horiz-adv-x="1101" d="M18 608v170h564v-170h-564zM117 0v1348h348q141 0 254 -55.5t191.5 -148.5t121.5 -215t43 -255t-43 -255t-121.5 -215t-191.5 -148.5t-254 -55.5h-348zM305 188h160q104 0 183 40t132.5 106.5t80 155t26.5 184.5q0 92 -28.5 179t-83 154.5t-132.5 108.5t-178 43l-160 2 v-973z" />
<glyph unicode="&#xd1;" horiz-adv-x="1034" d="M39 0v1348h215l551 -1002v1002h190v-1348h-213l-557 1010v-1010h-186zM217 1561q16 25 41 54t55.5 56t63.5 44.5t64 17.5q23 0 43 -11.5t38.5 -25t33 -24.5t24.5 -11q29 0 56.5 29.5t41.5 52.5l135 -94q-16 -25 -41.5 -54.5t-55.5 -55.5t-62.5 -43t-65.5 -17 q-23 0 -42 11t-35.5 24.5t-31 24.5t-28.5 11q-29 0 -56.5 -29.5t-43.5 -52.5z" />
<glyph unicode="&#xd2;" horiz-adv-x="1351" d="M18 674q0 135 49.5 258t136.5 215t204.5 147.5t257.5 55.5q137 0 255.5 -55.5t207 -147.5t137.5 -215t49 -258t-49 -258t-137.5 -215t-207 -147.5t-255.5 -55.5q-139 0 -257 55.5t-205 147.5t-136.5 215t-49.5 258zM209 674q0 -98 32.5 -186.5t93 -155t144.5 -105.5 t187 -39q100 0 185 39t145.5 105.5t94 154.5t33.5 187q0 94 -34.5 182t-96 155.5t-145.5 108.5t-182 41q-102 0 -186.5 -39t-145 -106.5t-93 -155.5t-32.5 -186zM487 1757l142 103l274 -388l-139 -104z" />
<glyph unicode="&#xd3;" horiz-adv-x="1351" d="M18 674q0 135 49.5 258t136.5 215t204.5 147.5t257.5 55.5q137 0 255.5 -55.5t207 -147.5t137.5 -215t49 -258t-49 -258t-137.5 -215t-207 -147.5t-255.5 -55.5q-139 0 -257 55.5t-205 147.5t-136.5 215t-49.5 258zM209 674q0 -98 32.5 -186.5t93 -155t144.5 -105.5 t187 -39q100 0 185 39t145.5 105.5t94 154.5t33.5 187q0 94 -34.5 182t-96 155.5t-145.5 108.5t-182 41q-102 0 -186.5 -39t-145 -106.5t-93 -155.5t-32.5 -186zM444 1515l389 349l115 -131l-389 -349z" />
<glyph unicode="&#xd4;" horiz-adv-x="1351" d="M18 674q0 135 49.5 258t136.5 215t204.5 147.5t257.5 55.5q137 0 255.5 -55.5t207 -147.5t137.5 -215t49 -258t-49 -258t-137.5 -215t-207 -147.5t-255.5 -55.5q-139 0 -257 55.5t-205 147.5t-136.5 215t-49.5 258zM209 674q0 -98 32.5 -186.5t93 -155t144.5 -105.5 t187 -39q100 0 185 39t145.5 105.5t94 154.5t33.5 187q0 94 -34.5 182t-96 155.5t-145.5 108.5t-182 41q-102 0 -186.5 -39t-145 -106.5t-93 -155.5t-32.5 -186zM426 1464l197 398h172l199 -398h-172l-113 226l-111 -226h-172z" />
<glyph unicode="&#xd5;" horiz-adv-x="1351" d="M18 674q0 135 49.5 258t136.5 215t204.5 147.5t257.5 55.5q137 0 255.5 -55.5t207 -147.5t137.5 -215t49 -258t-49 -258t-137.5 -215t-207 -147.5t-255.5 -55.5q-139 0 -257 55.5t-205 147.5t-136.5 215t-49.5 258zM209 674q0 -98 32.5 -186.5t93 -155t144.5 -105.5 t187 -39q100 0 185 39t145.5 105.5t94 154.5t33.5 187q0 94 -34.5 182t-96 155.5t-145.5 108.5t-182 41q-102 0 -186.5 -39t-145 -106.5t-93 -155.5t-32.5 -186zM395 1561q16 25 41 54t55.5 56t63.5 44.5t64 17.5q23 0 43 -11.5t38.5 -25t33 -24.5t24.5 -11q29 0 56.5 29.5 t41.5 52.5l135 -94q-16 -25 -41.5 -54.5t-55.5 -55.5t-62.5 -43t-65.5 -17q-23 0 -42 11t-35.5 24.5t-31 24.5t-28.5 11q-29 0 -56.5 -29.5t-43.5 -52.5z" />
<glyph unicode="&#xd6;" horiz-adv-x="1351" d="M18 674q0 135 49.5 258t136.5 215t204.5 147.5t257.5 55.5q137 0 255.5 -55.5t207 -147.5t137.5 -215t49 -258t-49 -258t-137.5 -215t-207 -147.5t-255.5 -55.5q-139 0 -257 55.5t-205 147.5t-136.5 215t-49.5 258zM209 674q0 -98 32.5 -186.5t93 -155t144.5 -105.5 t187 -39q100 0 185 39t145.5 105.5t94 154.5t33.5 187q0 94 -34.5 182t-96 155.5t-145.5 108.5t-182 41q-102 0 -186.5 -39t-145 -106.5t-93 -155.5t-32.5 -186zM471 1511v170h174v-170h-174zM741 1511v170h172v-170h-172z" />
<glyph unicode="&#xd7;" horiz-adv-x="880" d="M29 303l278 277l-278 278l133 131l278 -276l279 276l133 -131l-279 -278l279 -277l-133 -133l-279 276l-278 -276z" />
<glyph unicode="&#xd8;" horiz-adv-x="1351" d="M18 674q0 135 49.5 258t136.5 215t204.5 147.5t257.5 55.5q137 0 255.5 -55.5t207 -147.5t137.5 -215t49 -258t-49 -258t-137.5 -215t-207 -147.5t-255.5 -55.5q-139 0 -257 55.5t-205 147.5t-136.5 215t-49.5 258zM164 -39l811 1425h213l-811 -1425h-213zM209 674 q0 -98 32.5 -186.5t93 -155t144.5 -105.5t187 -39q100 0 185 39t145.5 105.5t94 154.5t33.5 187q0 94 -34.5 182t-96 155.5t-145.5 108.5t-182 41q-102 0 -186.5 -39t-145 -106.5t-93 -155.5t-32.5 -186z" />
<glyph unicode="&#xd9;" horiz-adv-x="1015" d="M18 637v711h191v-711q0 -74 9 -154t40 -145.5t88 -107.5t152 -42q94 0 151.5 42t88 107.5t39.5 145.5t9 154v711h191v-711q0 -117 -23.5 -231.5t-79 -204.5t-147.5 -146.5t-229 -56.5t-229.5 56.5t-147.5 146.5t-79 204.5t-24 231.5zM313 1757l142 103l274 -388 l-139 -104z" />
<glyph unicode="&#xda;" horiz-adv-x="1015" d="M18 637v711h191v-711q0 -74 9 -154t40 -145.5t88 -107.5t152 -42q94 0 151.5 42t88 107.5t39.5 145.5t9 154v711h191v-711q0 -117 -23.5 -231.5t-79 -204.5t-147.5 -146.5t-229 -56.5t-229.5 56.5t-147.5 146.5t-79 204.5t-24 231.5zM250 1515l389 349l115 -131 l-389 -349z" />
<glyph unicode="&#xdb;" horiz-adv-x="1015" d="M18 637v711h191v-711q0 -74 9 -154t40 -145.5t88 -107.5t152 -42q94 0 151.5 42t88 107.5t39.5 145.5t9 154v711h191v-711q0 -117 -23.5 -231.5t-79 -204.5t-147.5 -146.5t-229 -56.5t-229.5 56.5t-147.5 146.5t-79 204.5t-24 231.5zM231 1464l197 398h172l199 -398h-172 l-113 226l-111 -226h-172z" />
<glyph unicode="&#xdc;" horiz-adv-x="1015" d="M18 637v711h191v-711q0 -74 9 -154t40 -145.5t88 -107.5t152 -42q94 0 151.5 42t88 107.5t39.5 145.5t9 154v711h191v-711q0 -117 -23.5 -231.5t-79 -204.5t-147.5 -146.5t-229 -56.5t-229.5 56.5t-147.5 146.5t-79 204.5t-24 231.5zM277 1511v170h174v-170h-174z M547 1511v170h172v-170h-172z" />
<glyph unicode="&#xdd;" horiz-adv-x="1087" d="M2 1348h203l327 -678l332 678h203l-438 -902v-446h-189v446zM282 1515l389 349l115 -131l-389 -349z" />
<glyph unicode="&#xde;" horiz-adv-x="927" d="M57 0v1348h189v-281q70 0 144.5 -3t146 -16.5t136 -39t113 -69.5t76 -108.5t27.5 -156.5q0 -139 -60.5 -218t-154.5 -118t-208 -48t-220 -9v-281h-189zM246 469h88q51 0 114.5 6t119 27.5t92 61.5t36.5 110t-36.5 109.5t-92 61t-119 28t-114.5 6.5h-88v-410z" />
<glyph unicode="&#xdf;" horiz-adv-x="923" d="M39 0v870q0 92 25.5 178.5t77 153t127 106.5t175.5 40q86 0 163 -27t134.5 -78t91 -122.5t33.5 -162.5q0 -82 -34.5 -159.5t-108.5 -118.5q80 -47 122 -132t42 -177q0 -88 -32 -157t-87 -117t-129 -73.5t-158 -25.5q-119 0 -219 49l78 178q68 -39 141 -39q39 0 78 13.5 t69.5 39t49 60.5t18.5 78q0 72 -42 112.5t-101 61t-128 26t-120 5.5v184q51 0 116.5 7t124 29.5t98.5 63.5t40 109q0 45 -23.5 80t-58.5 58.5t-77 35.5t-81 12q-59 0 -101 -26.5t-68.5 -67.5t-38 -93t-11.5 -104v-870h-186z" />
<glyph unicode="&#xe0;" horiz-adv-x="983" d="M18 481q0 94 34 182.5t95.5 155t144.5 106.5t181 40q162 0 285 -105v103h186v-963h-186v102q-123 -104 -285 -104q-98 0 -181 40t-144.5 106.5t-95.5 153.5t-34 183zM207 481q0 -59 18.5 -112.5t52 -93t84 -64.5t111.5 -25t111.5 23.5t85.5 64.5t53 94.5t18 112.5 q0 55 -19.5 108.5t-55 95.5t-85 66.5t-108.5 24.5q-61 0 -110.5 -24.5t-84 -65.5t-53 -94.5t-18.5 -110.5zM274 1378l142 103l274 -388l-139 -104z" />
<glyph unicode="&#xe1;" horiz-adv-x="983" d="M18 481q0 94 34 182.5t95.5 155t144.5 106.5t181 40q162 0 285 -105v103h186v-963h-186v102q-123 -104 -285 -104q-98 0 -181 40t-144.5 106.5t-95.5 153.5t-34 183zM207 481q0 -59 18.5 -112.5t52 -93t84 -64.5t111.5 -25t111.5 23.5t85.5 64.5t53 94.5t18 112.5 q0 55 -19.5 108.5t-55 95.5t-85 66.5t-108.5 24.5q-61 0 -110.5 -24.5t-84 -65.5t-53 -94.5t-18.5 -110.5zM213 1128l389 349l115 -131l-389 -349z" />
<glyph unicode="&#xe2;" horiz-adv-x="983" d="M18 481q0 94 34 182.5t95.5 155t144.5 106.5t181 40q162 0 285 -105v103h186v-963h-186v102q-123 -104 -285 -104q-98 0 -181 40t-144.5 106.5t-95.5 153.5t-34 183zM192 1077l197 398h172l199 -398h-172l-113 226l-111 -226h-172zM207 481q0 -59 18.5 -112.5t52 -93 t84 -64.5t111.5 -25t111.5 23.5t85.5 64.5t53 94.5t18 112.5q0 55 -19.5 108.5t-55 95.5t-85 66.5t-108.5 24.5q-61 0 -110.5 -24.5t-84 -65.5t-53 -94.5t-18.5 -110.5z" />
<glyph unicode="&#xe3;" horiz-adv-x="983" d="M18 481q0 94 34 182.5t95.5 155t144.5 106.5t181 40q162 0 285 -105v103h186v-963h-186v102q-123 -104 -285 -104q-98 0 -181 40t-144.5 106.5t-95.5 153.5t-34 183zM178 1174q16 25 41 54t55.5 56t63.5 44.5t64 17.5q23 0 43 -11.5t38.5 -25t33 -24.5t24.5 -11 q29 0 56.5 29.5t41.5 52.5l135 -94q-16 -25 -41.5 -54.5t-55.5 -55.5t-62.5 -43t-65.5 -17q-23 0 -42 11t-35.5 24.5t-31 24.5t-28.5 11q-29 0 -56.5 -29.5t-43.5 -52.5zM207 481q0 -59 18.5 -112.5t52 -93t84 -64.5t111.5 -25t111.5 23.5t85.5 64.5t53 94.5t18 112.5 q0 55 -19.5 108.5t-55 95.5t-85 66.5t-108.5 24.5q-61 0 -110.5 -24.5t-84 -65.5t-53 -94.5t-18.5 -110.5z" />
<glyph unicode="&#xe4;" horiz-adv-x="983" d="M18 481q0 94 34 182.5t95.5 155t144.5 106.5t181 40q162 0 285 -105v103h186v-963h-186v102q-123 -104 -285 -104q-98 0 -181 40t-144.5 106.5t-95.5 153.5t-34 183zM207 481q0 -59 18.5 -112.5t52 -93t84 -64.5t111.5 -25t111.5 23.5t85.5 64.5t53 94.5t18 112.5 q0 55 -19.5 108.5t-55 95.5t-85 66.5t-108.5 24.5q-61 0 -110.5 -24.5t-84 -65.5t-53 -94.5t-18.5 -110.5zM258 1124v170h174v-170h-174zM528 1124v170h172v-170h-172z" />
<glyph unicode="&#xe5;" horiz-adv-x="983" d="M18 481q0 94 34 182.5t95.5 155t144.5 106.5t181 40q162 0 285 -105v103h186v-963h-186v102q-123 -104 -285 -104q-98 0 -181 40t-144.5 106.5t-95.5 153.5t-34 183zM207 481q0 -59 18.5 -112.5t52 -93t84 -64.5t111.5 -25t111.5 23.5t85.5 64.5t53 94.5t18 112.5 q0 55 -19.5 108.5t-55 95.5t-85 66.5t-108.5 24.5q-61 0 -110.5 -24.5t-84 -65.5t-53 -94.5t-18.5 -110.5zM258 1288q0 45 16.5 86t45.5 73t67.5 51.5t85.5 19.5q45 0 86 -18.5t70 -50.5t46.5 -74t17.5 -87t-17.5 -86t-46.5 -72.5t-69.5 -50t-86.5 -18.5q-47 0 -85.5 18.5 t-67.5 50t-45.5 72.5t-16.5 86zM406 1288q0 -33 16.5 -55.5t50.5 -22.5q35 0 52.5 22.5t17.5 55.5q0 31 -17.5 56.5t-52.5 25.5t-51 -24.5t-16 -57.5z" />
<glyph unicode="&#xe6;" horiz-adv-x="1681" d="M18 481q0 94 34 182.5t95.5 155t144.5 106.5t181 40q162 0 285 -105v103h186v-963h-186v102q-123 -104 -285 -104q-98 0 -181 40t-144.5 106.5t-95.5 153.5t-34 183zM207 481q0 -59 18.5 -112.5t52 -93t84 -64.5t111.5 -25t111.5 23.5t85.5 64.5t53 94.5t18 112.5 q0 55 -19.5 108.5t-55 95.5t-85 66.5t-108.5 24.5q-61 0 -110.5 -24.5t-84 -65.5t-53 -94.5t-18.5 -110.5zM772 481q0 92 32 179.5t89.5 155t137 108.5t178.5 41q96 0 176 -42t137 -110t89 -155t32 -177q0 -55 -17 -114h-647q29 -82 94.5 -131.5t153.5 -49.5q63 0 117.5 31 t95.5 78l129 -133q-66 -74 -154 -119t-188 -45q-98 0 -182 40t-144.5 106.5t-94.5 153.5t-34 183zM967 553h479q-8 45 -28.5 85t-51 70.5t-71.5 49t-88 18.5q-102 0 -163 -63.5t-77 -159.5z" />
<glyph unicode="&#xe7;" horiz-adv-x="837" d="M10 481q0 94 34 182.5t95.5 155t144.5 106.5t181 40q100 0 188 -46.5t156 -117.5l-129 -131q-41 47 -96.5 76.5t-118.5 29.5q-61 0 -110.5 -24.5t-85.5 -64.5t-54 -94t-18 -112q0 -59 18 -112.5t53 -94.5t85 -64.5t112 -23.5q63 0 118.5 30t94.5 79l131 -133 q-66 -74 -155 -119t-189 -45q-98 0 -181 40t-144.5 106.5t-95.5 153.5t-34 183zM176 -416l127 129q14 -6 35 -10t44.5 -7t45 -4t37.5 -1q10 0 28.5 1t37 4t33 11t14.5 25q0 14 -29 27.5t-65.5 23.5t-72.5 16l-48 8v281h168v-151q37 -10 78 -26.5t74.5 -42.5t55 -60.5 t21.5 -79.5q0 -61 -30.5 -101.5t-76.5 -63t-101.5 -31.5t-104.5 -9q-70 0 -139.5 15.5t-131.5 45.5z" />
<glyph unicode="&#xe8;" horiz-adv-x="929" d="M20 481q0 92 32 179.5t89.5 155t137 108.5t178.5 41q96 0 176 -42t137 -110t89 -155t32 -177q0 -55 -17 -114h-647q29 -82 94.5 -131.5t153.5 -49.5q63 0 117.5 31t95.5 78l129 -133q-66 -74 -154 -119t-188 -45q-98 0 -182 40t-144.5 106.5t-94.5 153.5t-34 183z M215 553h479q-8 45 -28.5 85t-51 70.5t-71.5 49t-88 18.5q-102 0 -163 -63.5t-77 -159.5zM274 1370l142 103l274 -388l-139 -104z" />
<glyph unicode="&#xe9;" horiz-adv-x="929" d="M20 481q0 92 32 179.5t89.5 155t137 108.5t178.5 41q96 0 176 -42t137 -110t89 -155t32 -177q0 -55 -17 -114h-647q29 -82 94.5 -131.5t153.5 -49.5q63 0 117.5 31t95.5 78l129 -133q-66 -74 -154 -119t-188 -45q-98 0 -182 40t-144.5 106.5t-94.5 153.5t-34 183z M192 1128l389 349l115 -131l-389 -349zM215 553h479q-8 45 -28.5 85t-51 70.5t-71.5 49t-88 18.5q-102 0 -163 -63.5t-77 -159.5z" />
<glyph unicode="&#xea;" horiz-adv-x="929" d="M20 481q0 92 32 179.5t89.5 155t137 108.5t178.5 41q96 0 176 -42t137 -110t89 -155t32 -177q0 -55 -17 -114h-647q29 -82 94.5 -131.5t153.5 -49.5q63 0 117.5 31t95.5 78l129 -133q-66 -74 -154 -119t-188 -45q-98 0 -182 40t-144.5 106.5t-94.5 153.5t-34 183z M165 1077l197 398h172l199 -398h-172l-113 226l-111 -226h-172zM215 553h479q-8 45 -28.5 85t-51 70.5t-71.5 49t-88 18.5q-102 0 -163 -63.5t-77 -159.5z" />
<glyph unicode="&#xeb;" horiz-adv-x="929" d="M20 481q0 92 32 179.5t89.5 155t137 108.5t178.5 41q96 0 176 -42t137 -110t89 -155t32 -177q0 -55 -17 -114h-647q29 -82 94.5 -131.5t153.5 -49.5q63 0 117.5 31t95.5 78l129 -133q-66 -74 -154 -119t-188 -45q-98 0 -182 40t-144.5 106.5t-94.5 153.5t-34 183z M215 553h479q-8 45 -28.5 85t-51 70.5t-71.5 49t-88 18.5q-102 0 -163 -63.5t-77 -159.5zM227 1124v170h174v-170h-174zM497 1124v170h172v-170h-172z" />
<glyph unicode="&#xec;" horiz-adv-x="415" d="M4 1370l142 103l274 -388l-139 -104zM114 0v963h187v-963h-187z" />
<glyph unicode="&#xed;" horiz-adv-x="415" d="M-41 1128l389 349l115 -131l-389 -349zM114 0v963h187v-963h-187z" />
<glyph unicode="&#xee;" horiz-adv-x="415" d="M-72 1077l197 398h172l199 -398h-172l-113 226l-111 -226h-172zM114 0v963h187v-963h-187z" />
<glyph unicode="&#xef;" horiz-adv-x="415" d="M-12 1124v170h174v-170h-174zM114 0v963h187v-963h-187zM258 1124v170h172v-170h-172z" />
<glyph unicode="&#xf0;" horiz-adv-x="950" d="M39 444q0 88 27.5 169t79 142.5t126 98.5t166.5 37q78 0 149.5 -27.5t129.5 -83.5q-10 53 -36 103.5t-60 93.5l-76 -84l-127 117l76 82q-47 31 -98.5 50t-106.5 21v187q90 0 173 -35t152 -90l123 135l127 -117l-127 -139q88 -109 132 -235t44 -265q0 -106 -22.5 -214.5 t-74.5 -196t-138 -141.5t-211 -54q-96 0 -175 35t-135.5 95t-87 141t-30.5 175zM225 444q0 -117 61.5 -187.5t182.5 -70.5q53 0 94 22.5t68.5 58.5t42 82t14.5 95q0 53 -18.5 100.5t-52 82.5t-78.5 55t-101 20q-53 0 -92 -22.5t-66.5 -59t-41 -82.5t-13.5 -94z" />
<glyph unicode="&#xf1;" horiz-adv-x="894" d="M18 0v963h189v-72q51 35 110.5 53.5t120.5 18.5q100 0 178 -40t131.5 -105.5t81 -152.5t27.5 -180v-485h-186v485q0 53 -13.5 104.5t-42 92.5t-72.5 66.5t-104 25.5q-57 0 -100 -24.5t-72.5 -63.5t-44 -89t-14.5 -101v-496h-189zM143 1174q16 25 41 54t55.5 56t63.5 44.5 t64 17.5q23 0 43 -11.5t38.5 -25t33 -24.5t24.5 -11q29 0 56.5 29.5t41.5 52.5l135 -94q-16 -25 -41.5 -54.5t-55.5 -55.5t-62.5 -43t-65.5 -17q-23 0 -42 11t-35.5 24.5t-31 24.5t-28.5 11q-29 0 -56.5 -29.5t-43.5 -52.5z" />
<glyph unicode="&#xf2;" horiz-adv-x="956" d="M18 481q0 94 34 182.5t95.5 155t144.5 106.5t181 40t182 -40t145.5 -106.5t95.5 -153.5t34 -184q0 -96 -34 -183t-95.5 -153.5t-145.5 -106.5t-182 -40t-181 40t-144.5 106.5t-95.5 153.5t-34 183zM207 481q0 -59 18.5 -112.5t52 -93t84 -64.5t111.5 -25t111.5 23.5 t85.5 64.5t53 94.5t18 112.5q0 55 -20.5 108.5t-55 94.5t-85 66.5t-107.5 25.5q-61 0 -110.5 -24.5t-84 -65.5t-53 -94.5t-18.5 -110.5zM270 1370l142 103l274 -388l-139 -104z" />
<glyph unicode="&#xf3;" horiz-adv-x="956" d="M18 481q0 94 34 182.5t95.5 155t144.5 106.5t181 40t182 -40t145.5 -106.5t95.5 -153.5t34 -184q0 -96 -34 -183t-95.5 -153.5t-145.5 -106.5t-182 -40t-181 40t-144.5 106.5t-95.5 153.5t-34 183zM207 481q0 -59 18.5 -112.5t52 -93t84 -64.5t111.5 -25t111.5 23.5 t85.5 64.5t53 94.5t18 112.5q0 55 -20.5 108.5t-55 94.5t-85 66.5t-107.5 25.5q-61 0 -110.5 -24.5t-84 -65.5t-53 -94.5t-18.5 -110.5zM225 1128l389 349l115 -131l-389 -349z" />
<glyph unicode="&#xf4;" horiz-adv-x="956" d="M18 481q0 94 34 182.5t95.5 155t144.5 106.5t181 40t182 -40t145.5 -106.5t95.5 -153.5t34 -184q0 -96 -34 -183t-95.5 -153.5t-145.5 -106.5t-182 -40t-181 40t-144.5 106.5t-95.5 153.5t-34 183zM188 1077l197 398h172l199 -398h-172l-113 226l-111 -226h-172zM207 481 q0 -59 18.5 -112.5t52 -93t84 -64.5t111.5 -25t111.5 23.5t85.5 64.5t53 94.5t18 112.5q0 55 -20.5 108.5t-55 94.5t-85 66.5t-107.5 25.5q-61 0 -110.5 -24.5t-84 -65.5t-53 -94.5t-18.5 -110.5z" />
<glyph unicode="&#xf5;" horiz-adv-x="956" d="M18 481q0 94 34 182.5t95.5 155t144.5 106.5t181 40t182 -40t145.5 -106.5t95.5 -153.5t34 -184q0 -96 -34 -183t-95.5 -153.5t-145.5 -106.5t-182 -40t-181 40t-144.5 106.5t-95.5 153.5t-34 183zM178 1174q16 25 41 54t55.5 56t63.5 44.5t64 17.5q23 0 43 -11.5 t38.5 -25t33 -24.5t24.5 -11q29 0 56.5 29.5t41.5 52.5l135 -94q-16 -25 -41.5 -54.5t-55.5 -55.5t-62.5 -43t-65.5 -17q-23 0 -42 11t-35.5 24.5t-31 24.5t-28.5 11q-29 0 -56.5 -29.5t-43.5 -52.5zM207 481q0 -59 18.5 -112.5t52 -93t84 -64.5t111.5 -25t111.5 23.5 t85.5 64.5t53 94.5t18 112.5q0 55 -20.5 108.5t-55 94.5t-85 66.5t-107.5 25.5q-61 0 -110.5 -24.5t-84 -65.5t-53 -94.5t-18.5 -110.5z" />
<glyph unicode="&#xf6;" horiz-adv-x="956" d="M18 481q0 94 34 182.5t95.5 155t144.5 106.5t181 40t182 -40t145.5 -106.5t95.5 -153.5t34 -184q0 -96 -34 -183t-95.5 -153.5t-145.5 -106.5t-182 -40t-181 40t-144.5 106.5t-95.5 153.5t-34 183zM207 481q0 -59 18.5 -112.5t52 -93t84 -64.5t111.5 -25t111.5 23.5 t85.5 64.5t53 94.5t18 112.5q0 55 -20.5 108.5t-55 94.5t-85 66.5t-107.5 25.5q-61 0 -110.5 -24.5t-84 -65.5t-53 -94.5t-18.5 -110.5zM254 1124v170h174v-170h-174zM524 1124v170h172v-170h-172z" />
<glyph unicode="&#xf7;" horiz-adv-x="884" d="M39 483v189h807v-189h-807zM348 219v187h189v-187h-189zM348 750v186h189v-186h-189z" />
<glyph unicode="&#xf8;" horiz-adv-x="956" d="M18 481q0 94 34 182.5t95.5 155t144.5 106.5t181 40t182 -40t145.5 -106.5t95.5 -153.5t34 -184q0 -96 -34 -183t-95.5 -153.5t-145.5 -106.5t-182 -40t-181 40t-144.5 106.5t-95.5 153.5t-34 183zM206 -193l388 1348h194l-389 -1348h-193zM207 481q0 -59 18.5 -112.5 t52 -93t84 -64.5t111.5 -25t111.5 23.5t85.5 64.5t53 94.5t18 112.5q0 55 -20.5 108.5t-55 94.5t-85 66.5t-107.5 25.5q-61 0 -110.5 -24.5t-84 -65.5t-53 -94.5t-18.5 -110.5z" />
<glyph unicode="&#xf9;" horiz-adv-x="894" d="M18 477v486h189v-486q0 -53 13 -105.5t42 -93t73 -66.5t103 -26t103.5 26t73 66.5t42 93t13.5 105.5v486h186v-963h-184v74q-102 -74 -234 -74q-100 0 -178 40t-132 105.5t-82 152.5t-28 179zM235 1370l142 103l274 -388l-139 -104z" />
<glyph unicode="&#xfa;" horiz-adv-x="892" d="M18 477v486h189v-486q0 -53 13 -105.5t42 -93t73 -66.5t103 -26t103.5 26t73 66.5t42 93t13.5 105.5v486h186v-963h-184v74q-102 -74 -234 -74q-100 0 -178 40t-132 105.5t-82 152.5t-28 179zM186 1128l389 349l115 -131l-389 -349z" />
<glyph unicode="&#xfb;" horiz-adv-x="894" d="M18 477v486h189v-486q0 -53 13 -105.5t42 -93t73 -66.5t103 -26t103.5 26t73 66.5t42 93t13.5 105.5v486h186v-963h-184v74q-102 -74 -234 -74q-100 0 -178 40t-132 105.5t-82 152.5t-28 179zM153 1077l197 398h172l199 -398h-172l-113 226l-111 -226h-172z" />
<glyph unicode="&#xfc;" horiz-adv-x="894" d="M18 477v486h189v-486q0 -53 13 -105.5t42 -93t73 -66.5t103 -26t103.5 26t73 66.5t42 93t13.5 105.5v486h186v-963h-184v74q-102 -74 -234 -74q-100 0 -178 40t-132 105.5t-82 152.5t-28 179zM213 1124v170h174v-170h-174zM483 1124v170h172v-170h-172z" />
<glyph unicode="&#xfd;" horiz-adv-x="874" d="M2 963h197l229 -674l234 674h194l-465 -1350h-194l133 389zM211 1128l389 349l115 -131l-389 -349z" />
<glyph unicode="&#xfe;" horiz-adv-x="821" d="M57 -387v1735h189v-435q39 27 84 39.5t92 12.5q98 0 166.5 -44t111.5 -114t62.5 -156t19.5 -170t-19.5 -170t-62.5 -155.5t-111.5 -113.5t-166.5 -44q-47 0 -92 12.5t-84 38.5v-436h-189zM246 506q0 -43 5 -98.5t23.5 -104.5t53 -83t94.5 -34q53 0 87 31t53.5 76t26.5 96 t7 92q0 37 -9 88.5t-28.5 97.5t-53.5 77.5t-83 31.5t-83 -27.5t-54.5 -67.5t-29.5 -88t-9 -87z" />
<glyph unicode="&#xff;" horiz-adv-x="874" d="M2 963h197l229 -674l234 674h194l-465 -1350h-194l133 389zM207 1124v170h174v-170h-174zM477 1124v170h172v-170h-172z" />
<glyph unicode="&#x152;" horiz-adv-x="1329" d="M18 674q0 135 49.5 257t136.5 215t204.5 147.5t257.5 54.5h624v-187h-485v-393h485v-190h-485v-390h485v-188h-624q-139 0 -257 54.5t-205 147.5t-136.5 215t-49.5 257zM209 674q0 -92 28.5 -175t82 -148.5t129 -107.5t169.5 -50v964q-94 -10 -169.5 -52t-129 -107.5 t-82 -148.5t-28.5 -175z" />
<glyph unicode="&#x153;" horiz-adv-x="1497" d="M18 481q0 94 34 182.5t95.5 155t144.5 106.5t181 40t185 -42t151 -114l-107 -176q-35 61 -96 102t-133 41q-61 0 -110.5 -24.5t-84 -65.5t-53 -94t-18.5 -111q0 -59 18.5 -112.5t52 -93t84 -64.5t111.5 -25q63 0 119.5 28t93.5 81l119 -148q-63 -72 -149.5 -110.5 t-182.5 -38.5q-98 0 -181 40t-144.5 106.5t-95.5 153.5t-34 183zM588 481q0 92 31.5 179.5t89 155t137.5 108.5t178 41q96 0 176 -42t137.5 -110t89 -155t31.5 -177q0 -55 -16 -114h-647q29 -82 94 -131.5t153 -49.5q63 0 117.5 31t95.5 78l129 -133q-66 -74 -153.5 -119 t-188.5 -45q-98 0 -182 40t-144.5 106.5t-94 153.5t-33.5 183zM782 553h480q-8 45 -29 85t-51.5 70.5t-71.5 49t-88 18.5q-102 0 -162.5 -63.5t-77.5 -159.5z" />
<glyph unicode="&#x178;" horiz-adv-x="1087" d="M2 1348h203l327 -678l332 678h203l-438 -902v-446h-189v446zM311 1511v170h174v-170h-174zM581 1511v170h172v-170h-172z" />
<glyph unicode="&#x2c6;" horiz-adv-x="604" d="M18 1077l197 398h172l199 -398h-172l-113 226l-111 -226h-172z" />
<glyph unicode="&#x2dc;" horiz-adv-x="634" d="M18 1174q16 25 41 54t55.5 56t63.5 44.5t64 17.5q23 0 43 -11.5t38.5 -25t33 -24.5t24.5 -11q29 0 56.5 29.5t41.5 52.5l135 -94q-16 -25 -41.5 -54.5t-55.5 -55.5t-62.5 -43t-65.5 -17q-23 0 -42 11t-35.5 24.5t-31 24.5t-28.5 11q-29 0 -56.5 -29.5t-43.5 -52.5z" />
<glyph unicode="&#x2000;" horiz-adv-x="958" />
<glyph unicode="&#x2001;" horiz-adv-x="1917" />
<glyph unicode="&#x2002;" horiz-adv-x="958" />
<glyph unicode="&#x2003;" horiz-adv-x="1917" />
<glyph unicode="&#x2004;" horiz-adv-x="639" />
<glyph unicode="&#x2005;" horiz-adv-x="479" />
<glyph unicode="&#x2006;" horiz-adv-x="319" />
<glyph unicode="&#x2007;" horiz-adv-x="319" />
<glyph unicode="&#x2008;" horiz-adv-x="239" />
<glyph unicode="&#x2009;" horiz-adv-x="383" />
<glyph unicode="&#x200a;" horiz-adv-x="106" />
<glyph unicode="&#x2010;" horiz-adv-x="696" d="M39 481v189h618v-189h-618z" />
<glyph unicode="&#x2011;" horiz-adv-x="696" d="M39 481v189h618v-189h-618z" />
<glyph unicode="&#x2012;" horiz-adv-x="696" d="M39 481v189h618v-189h-618z" />
<glyph unicode="&#x2013;" horiz-adv-x="888" d="M39 481v189h811v-189h-811z" />
<glyph unicode="&#x2014;" horiz-adv-x="1081" d="M39 481v189h1003v-189h-1003z" />
<glyph unicode="&#x2018;" horiz-adv-x="309" d="M57 973q0 66 14.5 130t49.5 122h117q-23 -23 -40.5 -54.5t-17.5 -66.5q0 -29 24.5 -39t47.5 -14v-183h-191q-2 27 -3 52.5t-1 52.5z" />
<glyph unicode="&#x2019;" horiz-adv-x="309" d="M57 1042v183h191q2 -27 3 -52.5t1 -52.5q0 -66 -14.5 -130t-49.5 -122h-116q23 23 40 54.5t17 66.5q0 29 -24.5 39t-47.5 14z" />
<glyph unicode="&#x201a;" d="M57 2v182h191q2 -27 3 -52.5t1 -51.5q0 -66 -14.5 -130.5t-49.5 -121.5h-116q23 23 40 54.5t17 66.5q0 29 -24.5 39t-47.5 14z" />
<glyph unicode="&#x201c;" horiz-adv-x="540" d="M57 973q0 66 14.5 130t49.5 122h117q-23 -23 -40.5 -54.5t-17.5 -66.5q0 -29 24.5 -39t47.5 -14v-183h-191q-2 27 -3 52.5t-1 52.5zM289 973q0 66 14 130t49 122h117q-23 -23 -40 -54.5t-17 -66.5q0 -29 24.5 -39t46.5 -14v-183h-190q-2 27 -3 52.5t-1 52.5z" />
<glyph unicode="&#x201d;" horiz-adv-x="540" d="M57 1042v183h191q2 -27 3 -52.5t1 -52.5q0 -66 -14.5 -130t-49.5 -122h-116q23 23 40 54.5t17 66.5q0 29 -24.5 39t-47.5 14zM289 1042v183h190q2 -27 3 -52.5t1 -52.5q0 -66 -14 -130t-49 -122h-117q23 23 40 54.5t17 66.5q0 29 -24.5 39t-46.5 14z" />
<glyph unicode="&#x201e;" horiz-adv-x="540" d="M57 2v182h191q2 -27 3 -52.5t1 -51.5q0 -66 -14.5 -130.5t-49.5 -121.5h-116q23 23 40 54.5t17 66.5q0 29 -24.5 39t-47.5 14zM289 2v182h190q2 -27 3 -52.5t1 -51.5q0 -66 -14 -130.5t-49 -121.5h-117q23 23 40 54.5t17 66.5q0 29 -24.5 39t-46.5 14z" />
<glyph unicode="&#x2022;" horiz-adv-x="401" d="M16 680q0 39 13.5 72.5t36 59.5t55.5 41t72 15q37 0 67.5 -16t54 -43t35.5 -60.5t12 -68.5q0 -74 -46 -129t-123 -55q-78 0 -127.5 54t-49.5 130z" />
<glyph unicode="&#x2026;" horiz-adv-x="825" d="M57 0v186h191v-186h-191zM317 0v186h191v-186h-191zM582 0v186h186v-186h-186z" />
<glyph unicode="&#x202f;" horiz-adv-x="383" />
<glyph unicode="&#x2039;" horiz-adv-x="610" d="M20 481q0 35 16.5 70t45.5 57l489 383v-211q-10 -8 -37.5 -29.5t-64.5 -50t-78 -61.5t-76.5 -63.5t-63.5 -57t-36 -41.5q25 -37 71 -78t98 -79.5t103.5 -73.5t83.5 -62v-209l-495 379q-29 23 -42.5 57.5t-13.5 69.5z" />
<glyph unicode="&#x203a;" horiz-adv-x="610" d="M18 -25v209q33 27 84.5 62t103.5 73.5t98 79.5t71 78q-12 23 -64.5 68t-112 93t-112.5 89t-68 53v211l490 -383q29 -23 45 -57.5t16 -69.5t-13 -69.5t-42 -57.5z" />
<glyph unicode="&#x205f;" horiz-adv-x="479" />
<glyph unicode="&#x20ac;" horiz-adv-x="968" d="M29 428v186h88q-2 16 -2 33v33h-86v184h98q14 94 50 182.5t93.5 157t138 109.5t185.5 41q106 0 194.5 -48.5t151.5 -131.5l-139 -123q-37 53 -89.5 83.5t-117.5 30.5q-66 0 -114 -25.5t-80.5 -67.5t-52 -96t-30.5 -112h557v-184h-571v-66h571v-186h-542q27 -100 88 -170 t174 -70q66 0 118 31t89 82l139 -123q-63 -84 -151.5 -132t-194.5 -48q-98 0 -174 35t-131.5 93t-92 136t-55.5 166h-112z" />
<glyph unicode="&#x2122;" horiz-adv-x="1218" d="M10 1159v94h512v-94h-211v-579h-94v579h-207zM530 580l56 673h98l182 -530l181 530h100l55 -673h-94l-37 452l-156 -452h-98l-155 452l-37 -452h-95z" />
<glyph unicode="&#x25fc;" horiz-adv-x="962" d="M0 0v963h963v-963h-963z" />
</font>
</defs>
</svg>
